<svg xmlns="http://www.w3.org/2000/svg" viewBox="0 0 520 300" fill="none">
<defs><filter id="shadow" x="-40%" y="-40%" width="180%" height="190%"><feDropShadow dx="0" dy="10" stdDeviation="8" flood-color="#9B5972" flood-opacity=".2"/></filter></defs>
<ellipse cx="292" cy="272" rx="157" ry="14" fill="#B5748D" opacity=".13"/>
<g filter="url(#shadow)">
<g transform="translate(172 29) rotate(-12 87 112)"><rect x="7" y="9" width="176" height="224" rx="14" fill="#D59AB0"/><rect width="176" height="224" rx="14" fill="#FFF5F8" stroke="#DDB4C4" stroke-width="2"/><path d="M23 30h112" stroke="#C895A9" stroke-width="7" stroke-linecap="round"/><rect x="21" y="53" width="23" height="23" rx="5" fill="#E7ADC4"/><path d="m26 64 5 5 8-9" stroke="white" stroke-width="3" stroke-linecap="round" stroke-linejoin="round"/><path d="M58 65h88" stroke="#CEACBA" stroke-width="5" stroke-linecap="round"/><rect x="21" y="93" width="23" height="23" rx="5" fill="#E7ADC4"/><path d="m26 104 5 5 8-9" stroke="white" stroke-width="3" stroke-linecap="round" stroke-linejoin="round"/><path d="M58 105h88" stroke="#CEACBA" stroke-width="5" stroke-linecap="round"/><rect x="21" y="133" width="23" height="23" rx="5" fill="#E7ADC4"/><path d="m26 144 5 5 8-9" stroke="white" stroke-width="3" stroke-linecap="round" stroke-linejoin="round"/><path d="M58 145h88" stroke="#CEACBA" stroke-width="5" stroke-linecap="round"/><rect x="21" y="173" width="23" height="23" rx="5" fill="#E7ADC4"/><path d="m26 184 5 5 8-9" stroke="white" stroke-width="3" stroke-linecap="round" stroke-linejoin="round"/><path d="M58 185h88" stroke="#CEACBA" stroke-width="5" stroke-linecap="round"/></g>
<g transform="translate(254 39) rotate(8 85 105)"><rect x="6" y="8" width="170" height="216" rx="14" fill="#E3B69D"/><path d="M0 14A14 14 0 0 1 14 0h142a14 14 0 0 1 14 14v192l-14-7-14 10-14-10-14 10-14-10-14 10-14-10-14 10-14-10-14 10-14-10-16 7Z" fill="white" stroke="#E3C6C1" stroke-width="2"/><text x="22" y="33" font-family="Arial,sans-serif" font-size="14" font-weight="700" fill="#AF6080">ARN RECEIPT</text><path d="M22 55h121M22 76h84M22 102h119M22 123h94M22 145h108" stroke="#D7BDC7" stroke-width="6" stroke-linecap="round"/><rect x="23" y="165" width="96" height="25" rx="5" fill="#FBE4ED"/><text x="38" y="182" font-family="Arial,sans-serif" font-size="12" font-weight="700" fill="#AF6080">VERIFIED</text></g>
<circle cx="420" cy="224" r="36" fill="#C65C82" stroke="#FFF3F7" stroke-width="5"/><path d="m404 223 11 11 22-25" stroke="white" stroke-width="6" stroke-linecap="round" stroke-linejoin="round"/>
</g></svg>