<svg xmlns="http://www.w3.org/2000/svg" width="140" height="120" viewBox="0 0 140 120" fill="none"><defs><linearGradient id="paper" x2="1" y2="1"><stop stop-color="#fff"/><stop offset="1" stop-color="#e8f3f8"/></linearGradient><filter id="depth" x="-40%" y="-40%" width="190%" height="190%"><feDropShadow dx="0" dy="4" stdDeviation="3" flood-color="#416f86" flood-opacity=".2"/></filter></defs>
<g filter="url(#depth)"><g transform="translate(18 13) rotate(-9 32 42)"><rect x="5" y="6" width="66" height="82" rx="10" fill="#8cc3df"/><rect width="66" height="82" rx="10" fill="url(#paper)" stroke="white" stroke-width="2"/><path d="M13 19h38M13 35h39M13 51h39M13 67h39M33 30v42" stroke="#92bdd2" stroke-width="3" stroke-linecap="round"/></g>
<g transform="translate(75 29) rotate(8 25 33)"><rect x="3" y="5" width="45" height="66" rx="9" fill="#6ab5c4"/><rect width="45" height="66" rx="9" fill="#e5f7fc" stroke="white" stroke-width="2"/><path d="M11 15h23M11 27h18" stroke="#82b7cf" stroke-width="3" stroke-linecap="round"/></g>
<path d="M86 57 108 64v17q0 15-22 25Q64 96 64 81V64Z" fill="#75c4c4" stroke="#dffff6" stroke-width="2"/><path d="m76 81 7 7 14-15" stroke="white" stroke-width="4" stroke-linecap="round" stroke-linejoin="round"/></g></svg>