<svg xmlns="http://www.w3.org/2000/svg" width="1440" height="620" viewBox="0 0 1440 620" fill="none">
<defs>
<linearGradient id="paper" x1="0" y1="0" x2="1" y2="1"><stop stop-color="#FFFFFF"/><stop offset="1" stop-color="#DDF8E6"/></linearGradient>
<linearGradient id="purple" x1="0" y1="0" x2="1" y2="1"><stop stop-color="#DEB9FF"/><stop offset="1" stop-color="#AC79D8"/></linearGradient>
<linearGradient id="mint" x1="0" y1="0" x2="1" y2="1"><stop stop-color="#9AEECB"/><stop offset="1" stop-color="#43B98C"/></linearGradient>
<filter id="depth" x="-40%" y="-40%" width="180%" height="190%"><feDropShadow dx="0" dy="9" stdDeviation="8" flood-color="#6C4688" flood-opacity=".22"/></filter>
</defs>
<!-- Primary motifs sit in exposed desktop corners; the copy area stays quiet. -->
<g transform="translate(1300 -22) rotate(12 76 75)" filter="url(#depth)">
<rect x="8" y="10" width="150" height="160" rx="20" fill="#A97CC9"/>
<rect width="150" height="160" rx="20" fill="url(#paper)" stroke="white" stroke-width="2"/>
<path d="M20 0H130Q150 0 150 20V46H0V20Q0 0 20 0Z" fill="url(#purple)"/>
<path d="M36 -5V16M114 -5V16" stroke="#84609E" stroke-width="9" stroke-linecap="round"/>
<g fill="#CBEBD7"><rect x="20" y="64" width="26" height="24" rx="5"/><rect x="62" y="64" width="26" height="24" rx="5"/><rect x="104" y="64" width="26" height="24" rx="5"/><rect x="20" y="106" width="26" height="24" rx="5"/><rect x="104" y="106" width="26" height="24" rx="5"/></g>
<rect x="58" y="101" width="34" height="34" rx="8" fill="url(#mint)"/>
<path d="M66 118L73 125L85 111" stroke="white" stroke-width="4" stroke-linecap="round" stroke-linejoin="round"/>
</g>
<g transform="translate(743 540) rotate(-13 92 62)" filter="url(#depth)">
<rect x="20" y="0" width="150" height="105" rx="14" fill="#B68ED2"/>
<rect x="10" y="-9" width="150" height="105" rx="14" fill="#E4C9F7" stroke="white"/>
<rect y="-18" width="150" height="105" rx="14" fill="url(#paper)" stroke="white" stroke-width="2"/>
<path d="M20 5H78M20 24H111M20 43H92" stroke="#9CB9AD" stroke-width="5" stroke-linecap="round"/>
<circle cx="131" cy="59" r="28" fill="url(#mint)" stroke="#D5FFEB" stroke-width="2"/>
<path d="M117 59L127 69L146 48" stroke="white" stroke-width="5" stroke-linecap="round" stroke-linejoin="round"/>
</g>
<!-- Small filing workflow along the bottom margin. -->
<path d="M994 597H1090Q1106 597 1106 581V571Q1106 555 1122 555H1200Q1216 555 1216 571V581Q1216 597 1232 597H1346" stroke="#8CBCA7" stroke-width="2" stroke-dasharray="5 7" opacity=".65"/>
<g transform="translate(1312 550)" filter="url(#depth)">
<rect width="62" height="58" rx="15" fill="url(#purple)" stroke="#F8EFFF"/>
<path d="M17 29L27 39L46 19" stroke="white" stroke-width="5" stroke-linecap="round" stroke-linejoin="round"/>
</g>
<!-- Secondary motifs behind the dashboard screenshot. -->
<g transform="translate(40 72) rotate(-12)" opacity=".3">
<rect x="9" y="10" width="157" height="183" rx="18" fill="#AC83CD"/>
<rect width="157" height="183" rx="18" fill="url(#paper)" stroke="white" stroke-width="2"/>
<path d="M26 40H115M26 70H131M26 100H105M26 130H119" stroke="#AC83CD" stroke-width="7" stroke-linecap="round"/>
</g>
<g transform="translate(555 195)" opacity=".19">
<rect width="130" height="140" rx="18" fill="url(#purple)"/>
<path d="M26 45H103M26 70H90M26 95H100" stroke="white" stroke-width="7" stroke-linecap="round"/>
</g>
<path d="M180 170C380 85 480 240 625 250S772 330 816 436" stroke="#B999D7" stroke-width="2" stroke-dasharray="6 9" opacity=".25"/>

<!-- A single train follows the static route; a faint tail and bright nose share its endpoint. -->
<g fill="none" stroke-linecap="round" pointer-events="none">
  <path class="route-trail" d="M994 597H1090Q1106 597 1106 581V571Q1106 555 1122 555H1200Q1216 555 1216 571V581Q1216 597 1232 597H1346" pathLength="100" stroke="#ac79d8" stroke-width="7" stroke-dasharray="16 184"/>
  <path class="route-train" d="M994 597H1090Q1106 597 1106 581V571Q1106 555 1122 555H1200Q1216 555 1216 571V581Q1216 597 1232 597H1346" pathLength="100" stroke="#8952c2" stroke-width="3.5" stroke-dasharray="7 193"/>
  <path class="route-nose" d="M994 597H1090Q1106 597 1106 581V571Q1106 555 1122 555H1200Q1216 555 1216 571V581Q1216 597 1232 597H1346" pathLength="100" stroke="#f9f0ff" stroke-width="2" stroke-dasharray="1.5 198.5"/>
  <circle class="route-arrival" cx="1346" cy="597" r="8" stroke="#8952c2" stroke-width="2"/>
</g>
<style>
  .route-trail { animation: routeTail 4.8s linear infinite; }
  .route-train { animation: routeTravel 4.8s linear infinite; }
  .route-nose { animation: routeNose 4.8s linear infinite; }
  .route-arrival { animation: routeArrival 4.8s ease-out infinite; }
  @keyframes routeTail {
    0% { stroke-dashoffset: 16; opacity: 0; }
    8% { opacity: .24; }
    82% { stroke-dashoffset: -84; opacity: .24; }
    88%, 100% { stroke-dashoffset: -84; opacity: 0; }
  }
  @keyframes routeTravel {
    0% { stroke-dashoffset: 7; opacity: 0; }
    4% { opacity: 1; }
    82% { stroke-dashoffset: -93; opacity: 1; }
    88%, 100% { stroke-dashoffset: -93; opacity: 0; }
  }
  @keyframes routeNose {
    0% { stroke-dashoffset: 1.5; opacity: 0; }
    4% { opacity: 1; }
    82% { stroke-dashoffset: -98.5; opacity: 1; }
    88%, 100% { stroke-dashoffset: -98.5; opacity: 0; }
  }
  @keyframes routeArrival {
    0%, 80% { opacity: 0; r: 5px; stroke-width: 2; }
    83% { opacity: .65; r: 5px; stroke-width: 2; }
    96%, 100% { opacity: 0; r: 15px; stroke-width: 1; }
  }
  @media (prefers-reduced-motion: reduce) {
    .route-trail, .route-train, .route-nose, .route-arrival { animation: none; display: none; }
  }
</style>
</svg>