<svg xmlns="http://www.w3.org/2000/svg" viewBox="0 0 180 170" fill="none"><defs><filter id="d" x="-40%" y="-40%" width="180%" height="190%"><feDropShadow dx="0" dy="6" stdDeviation="5" flood-color="#56718B" flood-opacity=".18"/></filter></defs><g filter="url(#d)" transform="translate(12 7) rotate(-8 75 75)"><rect x="12" y="13" width="130" height="137" rx="13" fill="#8FC6B5"/><rect width="130" height="137" rx="13" fill="#F7FFFB" stroke="#9DCDBB" stroke-width="2"/><rect x="17" y="18" width="63" height="7" rx="3" fill="#83B4A2"/><rect x="16" y="38" width="98" height="17" rx="3" fill="#CDEADC"/><path d="M16 55h98M16 74h98M16 93h98M16 112h98M49 38v74M81 38v74" stroke="#A8CEBE" stroke-width="1.5"/><g font-family="Arial,sans-serif" font-size="9" fill="#5F9581" text-anchor="end"><text x="74" y="68">120</text><text x="108" y="68">240</text><text x="74" y="87">180</text><text x="108" y="87">360</text><text x="74" y="106">300</text><text x="108" y="106">600</text></g></g><g transform="translate(112 113)" filter="url(#d)"><rect width="53" height="36" rx="8" fill="#EDF9F2" stroke="#90C3AF"/><text x="26" y="23" text-anchor="middle" fill="#498B75" font-family="Arial,sans-serif" font-size="13" font-weight="700">1,200</text></g></svg>