<svg xmlns="http://www.w3.org/2000/svg" width="1440" height="620" viewBox="0 0 1440 620" fill="none"><defs><filter id="depth" x="-40%" y="-40%" width="180%" height="190%"><feDropShadow dx="0" dy="8" stdDeviation="7" flood-color="#365A77" flood-opacity=".17"/></filter></defs>
<g class="moving"><path d="M883 579 C954 580 961 534 1030 544 S1131 615 1203 582 S1290 545 1352 574" pathLength="100" stroke="#658DD3" stroke-width="3" stroke-linecap="round" stroke-linejoin="round" stroke-dasharray="100 100" stroke-dashoffset="100"><animate attributeName="stroke-dashoffset" values="100;-100" dur="16s" repeatCount="indefinite"/></path>
<g><g><circle r="8" fill="#658DD3" opacity=".2"><animate attributeName="r" values="5;10;5" dur="1.5s" repeatCount="indefinite"/></circle><circle r="3.5" fill="#658DD3"><animate attributeName="opacity" values="1;.4;1" dur="1.5s" repeatCount="indefinite"/></circle><animateMotion path="M883 579 C954 580 961 534 1030 544 S1131 615 1203 582 S1290 545 1352 574" dur="16s" repeatCount="indefinite" calcMode="linear" keyPoints="0;1;1" keyTimes="0;.5;1"/></g><animate attributeName="opacity" values="1;0;0" keyTimes="0;.5;1" calcMode="discrete" dur="16s" repeatCount="indefinite"/></g></g>
<path class="still" d="M883 579 C954 580 961 534 1030 544 S1131 615 1203 582 S1290 545 1352 574" stroke="#658DD3" stroke-width="3" stroke-linecap="round"/>
<g transform="translate(1290 -18) rotate(10 60 67)" filter="url(#depth)"><rect x="7" y="9" width="122" height="143" rx="17" fill="#658DD3" opacity=".5"/><rect width="122" height="143" rx="17" fill="#FFFEFD" stroke="#D9E7FF" stroke-width="2"/><rect x="15" y="19" width="91" height="25" rx="6" fill="#D9E7FF"/><text x="60" y="36" text-anchor="middle" font-family="Arial,sans-serif" font-size="12" font-weight="700" fill="#658DD3">RETURN</text><g transform="translate(31 51)" stroke="#658DD3" stroke-width="4" stroke-linecap="round" stroke-linejoin="round"><path d="M30 47V18m-10 10 10-10 10 10M17 48h26"/></g><path d="M20 119h80" stroke="#D9E7FF" stroke-width="6" stroke-linecap="round"/></g>
<g transform="translate(817 546)" filter="url(#depth)"><rect x="4" y="7" width="67" height="65" rx="14" fill="#658DD3" opacity=".55"/><rect width="67" height="65" rx="14" fill="#FFFDFB" stroke="#D9E7FF" stroke-width="2"/><g transform="translate(4 0)" stroke="#658DD3" stroke-width="3.5" stroke-linecap="round" stroke-linejoin="round"><path d="M30 47V18m-10 10 10-10 10 10M17 48h26"/></g></g>
<g transform="translate(1322 545)" filter="url(#depth)"><rect x="4" y="6" width="60" height="60" rx="16" fill="#658DD3" opacity=".5"/><rect width="60" height="60" rx="16" fill="#658DD3" stroke="#D9E7FF" stroke-width="2"/><path d="m16 30 10 10 20-22" stroke="white" stroke-width="4" stroke-linecap="round" stroke-linejoin="round"/></g>
<style>.still{display:none}@media(prefers-reduced-motion:reduce){.moving{display:none}.still{display:block}}</style></svg>